========================================
 Mythology Studio Run
========================================
Timestamp: 2026-03-12 15:35:46
Log file : /sdcard/mythology-engine/logs/myth_run_20260312_153546.log

[1/5] Running Mythology Engine...
[EpisodePipeline] Output root: examples/releases/output
[EpisodePipeline] Script text: Tonight we investigate The Origin of the Impossible Map. Researchers recently uncovered evidence that challenges known exploration routes.
[EpisodePipeline] Title result: {'title': "The Origin of the Impossible Map — Historians Can't Explain This", 'hook': "Historians can't explain this", 'score': 5}
[EpisodePipeline] Rendering image -> examples/releases/output/episode_frame.png
[EpisodePipeline] Image render result: {'executed': True, 'output_path': 'examples/releases/output/episode_frame.png', 'mode': 'title_card'}
[EpisodePipeline] Rendering image -> examples/releases/output/scene_01.png
[EpisodePipeline] Image render result: {'executed': True, 'output_path': 'examples/releases/output/scene_01.png', 'mode': 'title_card'}
[EpisodePipeline] Rendering image -> examples/releases/output/scene_02.png
[EpisodePipeline] Image render result: {'executed': True, 'output_path': 'examples/releases/output/scene_02.png', 'mode': 'title_card'}
[EpisodePipeline] Rendering image -> examples/releases/output/scene_03.png
[EpisodePipeline] Image render result: {'executed': True, 'output_path': 'examples/releases/output/scene_03.png', 'mode': 'title_card'}
[EpisodePipeline] Synthesizing audio -> examples/releases/output/narration.wav
[EpisodePipeline] Audio result: {'provider': 'piper', 'output_path': 'examples/releases/output/narration.wav', 'executed': False, 'returncode': None, 'mode': 'audio_disabled', 'valid_wav': False}
[EpisodePipeline] Valid WAV: False
[EpisodePipeline] Building silent scene video -> examples/releases/output/episode_silent.mp4
[EpisodePipeline] Scene clip command: ffmpeg -y -loop 1 -i examples/releases/output/scene_01.png -t 4 -vf scale=1280:720 -pix_fmt yuv420p examples/releases/output/scene_01.mp4
ffmpeg version 8.0.1 Copyright (c) 2000-2025 the FFmpeg developers
  built with Android (13989888, +pgo, +bolt, +lto, +mlgo, based on r563880c) clang version 21.0.0 (https://android.googlesource.com/toolchain/llvm-project 5e96669f06077099aa41290cdb4c5e6fa0f59349)
  configuration: --arch=aarch64 --as=aarch64-linux-android-clang --cc=aarch64-linux-android-clang --cxx=aarch64-linux-android-clang++ --nm=llvm-nm --ar=llvm-ar --ranlib=llvm-ranlib --pkg-config=/home/builder/.termux-build/_cache/android-r29-api-24-v3/bin/pkg-config --strip=llvm-strip --cross-prefix=aarch64-linux-android- --disable-indevs --disable-outdevs --enable-indev=lavfi --disable-static --disable-symver --enable-cross-compile --enable-gpl --enable-version3 --enable-jni --enable-lcms2 --enable-libaom --enable-libass --enable-libbluray --enable-libbs2b --enable-libdav1d --enable-libfontconfig --enable-libfreetype --enable-libfribidi --enable-libglslang --enable-libgme --enable-libharfbuzz --enable-libmp3lame --enable-libopencore-amrnb --enable-libopencore-amrwb --enable-libopenmpt --enable-libopus --enable-libplacebo --enable-librav1e --enable-librubberband --enable-libsoxr --enable-libsrt --enable-libssh --enable-libsvtav1 --enable-libtheora --enable-libv4l2 --enable-libvidstab --enable-libvmaf --enable-libvo-amrwbenc --enable-libvorbis --enable-libvpx --enable-libwebp --enable-libx264 --enable-libx265 --enable-libxml2 --enable-libxvid --enable-libzimg --enable-libzmq --enable-mediacodec --enable-opencl --enable-openssl --enable-shared --prefix=/data/data/com.termux/files/usr --target-os=android --extra-libs=-landroid-glob --enable-vulkan --enable-neon --disable-libfdk-aac
  libavutil      60.  8.100 / 60.  8.100
  libavcodec     62. 11.100 / 62. 11.100
  libavformat    62.  3.100 / 62.  3.100
  libavdevice    62.  1.100 / 62.  1.100
  libavfilter    11.  4.100 / 11.  4.100
  libswscale      9.  1.100 /  9.  1.100
  libswresample   6.  1.100 /  6.  1.100
Input #0, png_pipe, from 'examples/releases/output/scene_01.png':
  Duration: N/A, bitrate: N/A
  Stream #0:0: Video: png, rgb24(pc, gbr/unknown/unknown), 1280x720, 25 fps, 25 tbr, 25 tbn
Stream mapping:
  Stream #0:0 -> #0:0 (png (native) -> h264 (libx264))
Press [q] to stop, [?] for help
[libx264 @ 0x7f5e42aa80] using cpu capabilities: ARMv8 NEON
[libx264 @ 0x7f5e42aa80] profile High, level 3.1, 4:2:0, 8-bit
[libx264 @ 0x7f5e42aa80] 264 - core 164 - H.264/MPEG-4 AVC codec - Copyleft 2003-2024 - http://www.videolan.org/x264.html - options: cabac=1 ref=3 deblock=1:0:0 analyse=0x3:0x113 me=hex subme=7 psy=1 psy_rd=1.00:0.00 mixed_ref=1 me_range=16 chroma_me=1 trellis=1 8x8dct=1 cqm=0 deadzone=21,11 fast_pskip=1 chroma_qp_offset=-2 threads=12 lookahead_threads=2 sliced_threads=0 nr=0 decimate=1 interlaced=0 bluray_compat=0 constrained_intra=0 bframes=3 b_pyramid=2 b_adapt=1 b_bias=0 direct=1 weightb=1 open_gop=0 weightp=2 keyint=250 keyint_min=25 scenecut=40 intra_refresh=0 rc_lookahead=40 rc=crf mbtree=1 crf=23.0 qcomp=0.60 qpmin=0 qpmax=69 qpstep=4 ip_ratio=1.40 aq=1:1.00
Output #0, mp4, to 'examples/releases/output/scene_01.mp4':
  Metadata:
    encoder         : Lavf62.3.100
  Stream #0:0: Video: h264 (avc1 / 0x31637661), yuv420p(tv, progressive), 1280x720, q=2-31, 25 fps, 12800 tbn
    Metadata:
      encoder         : Lavc62.11.100 libx264
    Side data:
      cpb: bitrate max/min/avg: 0/0/0 buffer size: 0 vbv_delay: N/A
frame=    0 fps=0.0 q=0.0 size=       0KiB time=N/A bitrate=N/A speed=N/A elapsed=0:00:00.50    frame=    0 fps=0.0 q=0.0 size=       0KiB time=N/A bitrate=N/A speed=N/A elapsed=0:00:01.00    frame=   59 fps= 39 q=28.0 size=       0KiB time=00:00:02.28 bitrate=   0.2kbits/s speed=1.51x elapsed=0:00:01.50    [out#0/mp4 @ 0x7f5e4b1a00] video:8KiB audio:0KiB subtitle:0KiB other streams:0KiB global headers:0KiB muxing overhead: 24.352885%
frame=  100 fps= 62 q=-1.0 Lsize=      10KiB time=00:00:03.92 bitrate=  21.4kbits/s speed=2.43x elapsed=0:00:01.61    
[libx264 @ 0x7f5e42aa80] frame I:1     Avg QP:18.99  size:  3176
[libx264 @ 0x7f5e42aa80] frame P:25    Avg QP: 9.77  size:    47
[libx264 @ 0x7f5e42aa80] frame B:74    Avg QP:12.68  size:    46
[libx264 @ 0x7f5e42aa80] consecutive B-frames:  1.0%  0.0%  3.0% 96.0%
[libx264 @ 0x7f5e42aa80] mb I  I16..4: 23.4% 75.6%  1.1%
[libx264 @ 0x7f5e42aa80] mb P  I16..4:  0.0%  0.0%  0.0%  P16..4:  0.0%  0.0%  0.0%  0.0%  0.0%    skip:100.0%
[libx264 @ 0x7f5e42aa80] mb B  I16..4:  0.0%  0.0%  0.0%  B16..8:  0.1%  0.0%  0.0%  direct: 0.0%  skip:99.9%  L0:68.3% L1:31.7% BI: 0.0%
[libx264 @ 0x7f5e42aa80] 8x8 transform intra:75.5% inter:0.0%
[libx264 @ 0x7f5e42aa80] coded y,uvDC,uvAC intra: 0.7% 0.0% 0.0% inter: 0.0% 0.0% 0.0%
[libx264 @ 0x7f5e42aa80] i16 v,h,dc,p: 71% 20%  9%  0%
[libx264 @ 0x7f5e42aa80] i8 v,h,dc,ddl,ddr,vr,hd,vl,hu: 70%  4% 26%  0%  0%  0%  0%  0%  0%
[libx264 @ 0x7f5e42aa80] i4 v,h,dc,ddl,ddr,vr,hd,vl,hu: 27% 13% 45%  1%  2%  2%  3%  4%  4%
[libx264 @ 0x7f5e42aa80] i8c dc,h,v,p: 100%  0%  0%  0%
[libx264 @ 0x7f5e42aa80] Weighted P-Frames: Y:0.0% UV:0.0%
[libx264 @ 0x7f5e42aa80] ref B L0: 46.5% 53.5%
[libx264 @ 0x7f5e42aa80] kb/s:15.49
[EpisodePipeline] Scene clip returncode: 0
[EpisodePipeline] Scene clip command: ffmpeg -y -loop 1 -i examples/releases/output/scene_02.png -t 4 -vf scale=1280:720 -pix_fmt yuv420p examples/releases/output/scene_02.mp4
ffmpeg version 8.0.1 Copyright (c) 2000-2025 the FFmpeg developers
  built with Android (13989888, +pgo, +bolt, +lto, +mlgo, based on r563880c) clang version 21.0.0 (https://android.googlesource.com/toolchain/llvm-project 5e96669f06077099aa41290cdb4c5e6fa0f59349)
  configuration: --arch=aarch64 --as=aarch64-linux-android-clang --cc=aarch64-linux-android-clang --cxx=aarch64-linux-android-clang++ --nm=llvm-nm --ar=llvm-ar --ranlib=llvm-ranlib --pkg-config=/home/builder/.termux-build/_cache/android-r29-api-24-v3/bin/pkg-config --strip=llvm-strip --cross-prefix=aarch64-linux-android- --disable-indevs --disable-outdevs --enable-indev=lavfi --disable-static --disable-symver --enable-cross-compile --enable-gpl --enable-version3 --enable-jni --enable-lcms2 --enable-libaom --enable-libass --enable-libbluray --enable-libbs2b --enable-libdav1d --enable-libfontconfig --enable-libfreetype --enable-libfribidi --enable-libglslang --enable-libgme --enable-libharfbuzz --enable-libmp3lame --enable-libopencore-amrnb --enable-libopencore-amrwb --enable-libopenmpt --enable-libopus --enable-libplacebo --enable-librav1e --enable-librubberband --enable-libsoxr --enable-libsrt --enable-libssh --enable-libsvtav1 --enable-libtheora --enable-libv4l2 --enable-libvidstab --enable-libvmaf --enable-libvo-amrwbenc --enable-libvorbis --enable-libvpx --enable-libwebp --enable-libx264 --enable-libx265 --enable-libxml2 --enable-libxvid --enable-libzimg --enable-libzmq --enable-mediacodec --enable-opencl --enable-openssl --enable-shared --prefix=/data/data/com.termux/files/usr --target-os=android --extra-libs=-landroid-glob --enable-vulkan --enable-neon --disable-libfdk-aac
  libavutil      60.  8.100 / 60.  8.100
  libavcodec     62. 11.100 / 62. 11.100
  libavformat    62.  3.100 / 62.  3.100
  libavdevice    62.  1.100 / 62.  1.100
  libavfilter    11.  4.100 / 11.  4.100
  libswscale      9.  1.100 /  9.  1.100
  libswresample   6.  1.100 /  6.  1.100
Input #0, png_pipe, from 'examples/releases/output/scene_02.png':
  Duration: N/A, bitrate: N/A
  Stream #0:0: Video: png, rgb24(pc, gbr/unknown/unknown), 1280x720, 25 fps, 25 tbr, 25 tbn
Stream mapping:
  Stream #0:0 -> #0:0 (png (native) -> h264 (libx264))
Press [q] to stop, [?] for help
[libx264 @ 0x764a22aa80] using cpu capabilities: ARMv8 NEON
[libx264 @ 0x764a22aa80] profile High, level 3.1, 4:2:0, 8-bit
[libx264 @ 0x764a22aa80] 264 - core 164 - H.264/MPEG-4 AVC codec - Copyleft 2003-2024 - http://www.videolan.org/x264.html - options: cabac=1 ref=3 deblock=1:0:0 analyse=0x3:0x113 me=hex subme=7 psy=1 psy_rd=1.00:0.00 mixed_ref=1 me_range=16 chroma_me=1 trellis=1 8x8dct=1 cqm=0 deadzone=21,11 fast_pskip=1 chroma_qp_offset=-2 threads=12 lookahead_threads=2 sliced_threads=0 nr=0 decimate=1 interlaced=0 bluray_compat=0 constrained_intra=0 bframes=3 b_pyramid=2 b_adapt=1 b_bias=0 direct=1 weightb=1 open_gop=0 weightp=2 keyint=250 keyint_min=25 scenecut=40 intra_refresh=0 rc_lookahead=40 rc=crf mbtree=1 crf=23.0 qcomp=0.60 qpmin=0 qpmax=69 qpstep=4 ip_ratio=1.40 aq=1:1.00
Output #0, mp4, to 'examples/releases/output/scene_02.mp4':
  Metadata:
    encoder         : Lavf62.3.100
  Stream #0:0: Video: h264 (avc1 / 0x31637661), yuv420p(tv, progressive), 1280x720, q=2-31, 25 fps, 12800 tbn
    Metadata:
      encoder         : Lavc62.11.100 libx264
    Side data:
      cpb: bitrate max/min/avg: 0/0/0 buffer size: 0 vbv_delay: N/A
frame=    6 fps=0.0 q=28.0 size=       0KiB time=00:00:00.16 bitrate=   2.4kbits/s speed=0.32x elapsed=0:00:00.50    [out#0/mp4 @ 0x764a2b1a00] video:8KiB audio:0KiB subtitle:0KiB other streams:0KiB global headers:0KiB muxing overhead: 24.666266%
frame=  100 fps=0.0 q=-1.0 Lsize=      10KiB time=00:00:03.92 bitrate=  21.2kbits/s speed=   4x elapsed=0:00:00.97    
[libx264 @ 0x764a22aa80] frame I:1     Avg QP:10.82  size:  3545
[libx264 @ 0x764a22aa80] frame P:25    Avg QP: 9.76  size:    48
[libx264 @ 0x764a22aa80] frame B:74    Avg QP:12.68  size:    39
[libx264 @ 0x764a22aa80] consecutive B-frames:  1.0%  0.0%  3.0% 96.0%
[libx264 @ 0x764a22aa80] mb I  I16..4: 54.9% 43.8%  1.3%
[libx264 @ 0x764a22aa80] mb P  I16..4:  0.0%  0.0%  0.0%  P16..4:  0.0%  0.0%  0.0%  0.0%  0.0%    skip:100.0%
[libx264 @ 0x764a22aa80] mb B  I16..4:  0.0%  0.0%  0.0%  B16..8:  0.0%  0.0%  0.0%  direct: 0.0%  skip:100.0%  L0:63.6% L1:36.4% BI: 0.0%
[libx264 @ 0x764a22aa80] 8x8 transform intra:43.7% inter:0.0%
[libx264 @ 0x764a22aa80] coded y,uvDC,uvAC intra: 0.9% 0.4% 0.1% inter: 0.0% 0.0% 0.0%
[libx264 @ 0x764a22aa80] i16 v,h,dc,p: 84% 12%  4%  0%
[libx264 @ 0x764a22aa80] i8 v,h,dc,ddl,ddr,vr,hd,vl,hu: 72% 15% 12%  0%  0%  0%  0%  0%  0%
[libx264 @ 0x764a22aa80] i4 v,h,dc,ddl,ddr,vr,hd,vl,hu: 23% 14% 49%  1%  2%  2%  3%  3%  3%
[libx264 @ 0x764a22aa80] i8c dc,h,v,p: 86%  9%  4%  0%
[libx264 @ 0x764a22aa80] Weighted P-Frames: Y:0.0% UV:0.0%
[libx264 @ 0x764a22aa80] ref B L0: 51.0% 49.0%
[libx264 @ 0x764a22aa80] ref B L1: 96.4%  3.6%
[libx264 @ 0x764a22aa80] kb/s:15.28
[EpisodePipeline] Scene clip returncode: 0
[EpisodePipeline] Scene clip command: ffmpeg -y -loop 1 -i examples/releases/output/scene_03.png -t 4 -vf scale=1280:720 -pix_fmt yuv420p examples/releases/output/scene_03.mp4
ffmpeg version 8.0.1 Copyright (c) 2000-2025 the FFmpeg developers
  built with Android (13989888, +pgo, +bolt, +lto, +mlgo, based on r563880c) clang version 21.0.0 (https://android.googlesource.com/toolchain/llvm-project 5e96669f06077099aa41290cdb4c5e6fa0f59349)
  configuration: --arch=aarch64 --as=aarch64-linux-android-clang --cc=aarch64-linux-android-clang --cxx=aarch64-linux-android-clang++ --nm=llvm-nm --ar=llvm-ar --ranlib=llvm-ranlib --pkg-config=/home/builder/.termux-build/_cache/android-r29-api-24-v3/bin/pkg-config --strip=llvm-strip --cross-prefix=aarch64-linux-android- --disable-indevs --disable-outdevs --enable-indev=lavfi --disable-static --disable-symver --enable-cross-compile --enable-gpl --enable-version3 --enable-jni --enable-lcms2 --enable-libaom --enable-libass --enable-libbluray --enable-libbs2b --enable-libdav1d --enable-libfontconfig --enable-libfreetype --enable-libfribidi --enable-libglslang --enable-libgme --enable-libharfbuzz --enable-libmp3lame --enable-libopencore-amrnb --enable-libopencore-amrwb --enable-libopenmpt --enable-libopus --enable-libplacebo --enable-librav1e --enable-librubberband --enable-libsoxr --enable-libsrt --enable-libssh --enable-libsvtav1 --enable-libtheora --enable-libv4l2 --enable-libvidstab --enable-libvmaf --enable-libvo-amrwbenc --enable-libvorbis --enable-libvpx --enable-libwebp --enable-libx264 --enable-libx265 --enable-libxml2 --enable-libxvid --enable-libzimg --enable-libzmq --enable-mediacodec --enable-opencl --enable-openssl --enable-shared --prefix=/data/data/com.termux/files/usr --target-os=android --extra-libs=-landroid-glob --enable-vulkan --enable-neon --disable-libfdk-aac
  libavutil      60.  8.100 / 60.  8.100
  libavcodec     62. 11.100 / 62. 11.100
  libavformat    62.  3.100 / 62.  3.100
  libavdevice    62.  1.100 / 62.  1.100
  libavfilter    11.  4.100 / 11.  4.100
  libswscale      9.  1.100 /  9.  1.100
  libswresample   6.  1.100 /  6.  1.100
Input #0, png_pipe, from 'examples/releases/output/scene_03.png':
  Duration: N/A, bitrate: N/A
  Stream #0:0: Video: png, rgb24(pc, gbr/unknown/unknown), 1280x720, 25 fps, 25 tbr, 25 tbn
Stream mapping:
  Stream #0:0 -> #0:0 (png (native) -> h264 (libx264))
Press [q] to stop, [?] for help
[libx264 @ 0x789b22aa80] using cpu capabilities: ARMv8 NEON
[libx264 @ 0x789b22aa80] profile High, level 3.1, 4:2:0, 8-bit
[libx264 @ 0x789b22aa80] 264 - core 164 - H.264/MPEG-4 AVC codec - Copyleft 2003-2024 - http://www.videolan.org/x264.html - options: cabac=1 ref=3 deblock=1:0:0 analyse=0x3:0x113 me=hex subme=7 psy=1 psy_rd=1.00:0.00 mixed_ref=1 me_range=16 chroma_me=1 trellis=1 8x8dct=1 cqm=0 deadzone=21,11 fast_pskip=1 chroma_qp_offset=-2 threads=12 lookahead_threads=2 sliced_threads=0 nr=0 decimate=1 interlaced=0 bluray_compat=0 constrained_intra=0 bframes=3 b_pyramid=2 b_adapt=1 b_bias=0 direct=1 weightb=1 open_gop=0 weightp=2 keyint=250 keyint_min=25 scenecut=40 intra_refresh=0 rc_lookahead=40 rc=crf mbtree=1 crf=23.0 qcomp=0.60 qpmin=0 qpmax=69 qpstep=4 ip_ratio=1.40 aq=1:1.00
Output #0, mp4, to 'examples/releases/output/scene_03.mp4':
  Metadata:
    encoder         : Lavf62.3.100
  Stream #0:0: Video: h264 (avc1 / 0x31637661), yuv420p(tv, progressive), 1280x720, q=2-31, 25 fps, 12800 tbn
    Metadata:
      encoder         : Lavc62.11.100 libx264
    Side data:
      cpb: bitrate max/min/avg: 0/0/0 buffer size: 0 vbv_delay: N/A
frame=    2 fps=0.0 q=28.0 size=       0KiB time=00:00:00.00 bitrate=N/A speed=   0x elapsed=0:00:00.50    [out#0/mp4 @ 0x789b2b1a00] video:8KiB audio:0KiB subtitle:0KiB other streams:0KiB global headers:0KiB muxing overhead: 24.618893%
frame=  100 fps=0.0 q=-1.0 Lsize=      10KiB time=00:00:03.92 bitrate=  21.2kbits/s speed=4.15x elapsed=0:00:00.94    
[libx264 @ 0x789b22aa80] frame I:1     Avg QP:11.32  size:  3393
[libx264 @ 0x789b22aa80] frame P:25    Avg QP: 9.81  size:    47
[libx264 @ 0x789b22aa80] frame B:74    Avg QP:12.68  size:    42
[libx264 @ 0x789b22aa80] consecutive B-frames:  1.0%  0.0%  3.0% 96.0%
[libx264 @ 0x789b22aa80] mb I  I16..4: 32.1% 66.6%  1.3%
[libx264 @ 0x789b22aa80] mb P  I16..4:  0.0%  0.0%  0.0%  P16..4:  0.0%  0.0%  0.0%  0.0%  0.0%    skip:100.0%
[libx264 @ 0x789b22aa80] mb B  I16..4:  0.0%  0.0%  0.0%  B16..8:  0.1%  0.0%  0.0%  direct: 0.0%  skip:99.9%  L0:72.1% L1:27.9% BI: 0.0%
[libx264 @ 0x789b22aa80] 8x8 transform intra:66.6% inter:0.0%
[libx264 @ 0x789b22aa80] coded y,uvDC,uvAC intra: 0.8% 0.5% 0.2% inter: 0.0% 0.0% 0.0%
[libx264 @ 0x789b22aa80] i16 v,h,dc,p: 72% 21%  7%  0%
[libx264 @ 0x789b22aa80] i8 v,h,dc,ddl,ddr,vr,hd,vl,hu: 82%  9%  9%  0%  0%  0%  0%  0%  0%
[libx264 @ 0x789b22aa80] i4 v,h,dc,ddl,ddr,vr,hd,vl,hu: 26% 16% 43%  1%  2%  1%  3%  3%  3%
[libx264 @ 0x789b22aa80] i8c dc,h,v,p: 86%  9%  4%  0%
[libx264 @ 0x789b22aa80] Weighted P-Frames: Y:0.0% UV:0.0%
[libx264 @ 0x789b22aa80] ref P L0: 80.0%  0.0% 20.0%
[libx264 @ 0x789b22aa80] ref B L0: 34.7% 65.3%
[libx264 @ 0x789b22aa80] ref B L1: 98.2%  1.8%
[libx264 @ 0x789b22aa80] kb/s:15.31
[EpisodePipeline] Scene clip returncode: 0
[EpisodePipeline] Concat command: ffmpeg -y -f concat -safe 0 -i examples/releases/output/concat.txt -c copy examples/releases/output/episode_silent.mp4
ffmpeg version 8.0.1 Copyright (c) 2000-2025 the FFmpeg developers
  built with Android (13989888, +pgo, +bolt, +lto, +mlgo, based on r563880c) clang version 21.0.0 (https://android.googlesource.com/toolchain/llvm-project 5e96669f06077099aa41290cdb4c5e6fa0f59349)
  configuration: --arch=aarch64 --as=aarch64-linux-android-clang --cc=aarch64-linux-android-clang --cxx=aarch64-linux-android-clang++ --nm=llvm-nm --ar=llvm-ar --ranlib=llvm-ranlib --pkg-config=/home/builder/.termux-build/_cache/android-r29-api-24-v3/bin/pkg-config --strip=llvm-strip --cross-prefix=aarch64-linux-android- --disable-indevs --disable-outdevs --enable-indev=lavfi --disable-static --disable-symver --enable-cross-compile --enable-gpl --enable-version3 --enable-jni --enable-lcms2 --enable-libaom --enable-libass --enable-libbluray --enable-libbs2b --enable-libdav1d --enable-libfontconfig --enable-libfreetype --enable-libfribidi --enable-libglslang --enable-libgme --enable-libharfbuzz --enable-libmp3lame --enable-libopencore-amrnb --enable-libopencore-amrwb --enable-libopenmpt --enable-libopus --enable-libplacebo --enable-librav1e --enable-librubberband --enable-libsoxr --enable-libsrt --enable-libssh --enable-libsvtav1 --enable-libtheora --enable-libv4l2 --enable-libvidstab --enable-libvmaf --enable-libvo-amrwbenc --enable-libvorbis --enable-libvpx --enable-libwebp --enable-libx264 --enable-libx265 --enable-libxml2 --enable-libxvid --enable-libzimg --enable-libzmq --enable-mediacodec --enable-opencl --enable-openssl --enable-shared --prefix=/data/data/com.termux/files/usr --target-os=android --extra-libs=-landroid-glob --enable-vulkan --enable-neon --disable-libfdk-aac
  libavutil      60.  8.100 / 60.  8.100
  libavcodec     62. 11.100 / 62. 11.100
  libavformat    62.  3.100 / 62.  3.100
  libavdevice    62.  1.100 / 62.  1.100
  libavfilter    11.  4.100 / 11.  4.100
  libswscale      9.  1.100 /  9.  1.100
  libswresample   6.  1.100 /  6.  1.100
[mov,mp4,m4a,3gp,3g2,mj2 @ 0x7836697500] Auto-inserting h264_mp4toannexb bitstream filter
Input #0, concat, from 'examples/releases/output/concat.txt':
  Duration: N/A, start: 0.000000, bitrate: 16 kb/s
  Stream #0:0(und): Video: h264 (High) (avc1 / 0x31637661), yuv420p(progressive), 1280x720, 16 kb/s, 25 fps, 25 tbr, 12800 tbn
    Metadata:
      handler_name    : VideoHandler
      vendor_id       : [0][0][0][0]
      encoder         : Lavc62.11.100 libx264
Stream mapping:
  Stream #0:0 -> #0:0 (copy)
Output #0, mp4, to 'examples/releases/output/episode_silent.mp4':
  Metadata:
    encoder         : Lavf62.3.100
  Stream #0:0(und): Video: h264 (High) (avc1 / 0x31637661), yuv420p(progressive), 1280x720, q=2-31, 16 kb/s, 25 fps, 25 tbr, 12800 tbn
    Metadata:
      handler_name    : VideoHandler
      vendor_id       : [0][0][0][0]
      encoder         : Lavc62.11.100 libx264
Press [q] to stop, [?] for help
[mov,mp4,m4a,3gp,3g2,mj2 @ 0x7836697500] Auto-inserting h264_mp4toannexb bitstream filter
    Last message repeated 1 times
[out#0/mp4 @ 0x78366b1d00] video:25KiB audio:0KiB subtitle:0KiB other streams:0KiB global headers:0KiB muxing overhead: 17.649394%
frame=  300 fps=0.0 q=-1.0 Lsize=      29KiB time=00:00:11.92 bitrate=  19.9kbits/s speed= 319x elapsed=0:00:00.03    
[EpisodePipeline] Concat returncode: 0
[EpisodePipeline] Silent video exists: True
[EpisodePipeline] Muxing audio + video -> examples/releases/output/episode.mp4
[EpisodePipeline] Video exists: True (examples/releases/output/episode_silent.mp4)
[EpisodePipeline] Audio exists: False (examples/releases/output/narration.wav)
[EpisodePipeline] Video size: 29630
[EpisodePipeline] narration.wav is not a valid WAV. Skipping mux.
[EpisodePipeline] Video result: {'command': ['ffmpeg', 'concat-scene-build'], 'output_path': 'examples/releases/output/episode_silent.mp4', 'executed': True, 'returncode': 0, 'mode': 'scene_concat'}
[EpisodePipeline] Thumbnail result: examples/releases/output/thumbnail.png
[EpisodePipeline] Release package: {'package_dir': 'examples/releases', 'manifest': {'title': "The Origin of the Impossible Map — Historians Can't Explain This", 'description': 'A documentary investigation into The Origin of the Impossible Map.', 'video': 'examples/releases/output/episode_silent.mp4', 'thumbnail': 'examples/releases/output/thumbnail.png', 'captions': 'examples/releases/output/captions.srt'}}
[1.5/5] Exporting episode bundle...
episode_bundle exported to /sdcard/mythology-engine/output/episode_bundle
  copied frame: True
  copied video: True
  copied audio: False
[2/5] Sending episode bundle to Forge...
Episode bundle sent to Forge
Archived to: /sdcard/mythology-engine/output_archive/episode_bundle_20260312_153553
[3/5] Running Mythology Forge...
media_bundle v0.7 created (real-media + teaser aware)
[4/5] Sending media bundle to Herald...
Media bundle sent to Herald
Archived to: /sdcard/mythology-forge/output_archive/media_bundle_20260312_153557
[5/5] Running Mythology Herald...
promo_bundle v0.5 created (deterministic)

Mythology pipeline complete.
Herald output:
  /sdcard/mythology-herald/output/promo_bundle
Logged run to:
  /sdcard/mythology-engine/logs/mythology_runs.log

Master log saved to:
  /sdcard/mythology-engine/logs/myth_run_20260312_153546.log
